<mxfile host="Electron" agent="Mozilla/5.0 (Windows NT 10.0; Win64; x64) AppleWebKit/537.36 (KHTML, like Gecko) draw.io/26.0.16 Chrome/132.0.6834.196 Electron/34.2.0 Safari/537.36" version="26.0.16">
  <diagram name="第 1 页" id="w701_fSm5EV3r7PEXog0">
    <mxGraphModel dx="646" dy="469" grid="1" gridSize="10" guides="1" tooltips="1" connect="1" arrows="1" fold="1" page="1" pageScale="1" pageWidth="827" pageHeight="1169" math="0" shadow="0">
      <root>
        <mxCell id="0" />
        <mxCell id="1" parent="0" />
        <mxCell id="iyzIHNlen3aJOYBns60_-1" value="" style="rounded=1;whiteSpace=wrap;html=1;arcSize=3;" vertex="1" parent="1">
          <mxGeometry x="227.5" y="140" width="132.5" height="100" as="geometry" />
        </mxCell>
        <mxCell id="iyzIHNlen3aJOYBns60_-2" value="" style="rounded=1;whiteSpace=wrap;html=1;arcSize=10;" vertex="1" parent="1">
          <mxGeometry x="160" y="80" width="200" height="40" as="geometry" />
        </mxCell>
        <mxCell id="iyzIHNlen3aJOYBns60_-3" value="" style="rounded=1;whiteSpace=wrap;html=1;arcSize=10;" vertex="1" parent="1">
          <mxGeometry x="480" y="80" width="200" height="40" as="geometry" />
        </mxCell>
        <mxCell id="iyzIHNlen3aJOYBns60_-4" value="应用A" style="text;html=1;align=center;verticalAlign=middle;whiteSpace=wrap;rounded=0;" vertex="1" parent="1">
          <mxGeometry x="160" y="85" width="60" height="30" as="geometry" />
        </mxCell>
        <mxCell id="iyzIHNlen3aJOYBns60_-5" value="应用B" style="text;html=1;align=center;verticalAlign=middle;whiteSpace=wrap;rounded=0;" vertex="1" parent="1">
          <mxGeometry x="480" y="85" width="60" height="30" as="geometry" />
        </mxCell>
        <mxCell id="iyzIHNlen3aJOYBns60_-6" value="buffer" style="rounded=0;whiteSpace=wrap;html=1;" vertex="1" parent="1">
          <mxGeometry x="262.5" y="90" width="60" height="20" as="geometry" />
        </mxCell>
        <mxCell id="iyzIHNlen3aJOYBns60_-7" value="buffer" style="rounded=0;whiteSpace=wrap;html=1;" vertex="1" parent="1">
          <mxGeometry x="550" y="90" width="60" height="20" as="geometry" />
        </mxCell>
        <mxCell id="iyzIHNlen3aJOYBns60_-8" value="" style="rounded=1;whiteSpace=wrap;html=1;arcSize=7;" vertex="1" parent="1">
          <mxGeometry x="240" y="155" width="25" height="60" as="geometry" />
        </mxCell>
        <mxCell id="iyzIHNlen3aJOYBns60_-9" value="" style="rounded=1;whiteSpace=wrap;html=1;arcSize=7;" vertex="1" parent="1">
          <mxGeometry x="290" y="155" width="25" height="60" as="geometry" />
        </mxCell>
        <mxCell id="iyzIHNlen3aJOYBns60_-10" value="" style="rounded=1;whiteSpace=wrap;html=1;arcSize=7;" vertex="1" parent="1">
          <mxGeometry x="324" y="155" width="25" height="60" as="geometry" />
        </mxCell>
        <mxCell id="iyzIHNlen3aJOYBns60_-11" value="内核" style="rounded=1;whiteSpace=wrap;html=1;arcSize=3;" vertex="1" parent="1">
          <mxGeometry x="160" y="140" width="60" height="100" as="geometry" />
        </mxCell>
        <mxCell id="iyzIHNlen3aJOYBns60_-12" value="内核" style="rounded=1;whiteSpace=wrap;html=1;arcSize=3;" vertex="1" parent="1">
          <mxGeometry x="620" y="140" width="60" height="100" as="geometry" />
        </mxCell>
        <mxCell id="iyzIHNlen3aJOYBns60_-13" value="" style="rounded=1;whiteSpace=wrap;html=1;arcSize=3;" vertex="1" parent="1">
          <mxGeometry x="477.5" y="140" width="132.5" height="100" as="geometry" />
        </mxCell>
        <mxCell id="iyzIHNlen3aJOYBns60_-14" value="" style="rounded=1;whiteSpace=wrap;html=1;arcSize=7;" vertex="1" parent="1">
          <mxGeometry x="490" y="155" width="25" height="60" as="geometry" />
        </mxCell>
        <mxCell id="iyzIHNlen3aJOYBns60_-15" value="" style="rounded=1;whiteSpace=wrap;html=1;arcSize=7;" vertex="1" parent="1">
          <mxGeometry x="525" y="155" width="25" height="60" as="geometry" />
        </mxCell>
        <mxCell id="iyzIHNlen3aJOYBns60_-16" value="" style="rounded=1;whiteSpace=wrap;html=1;arcSize=7;" vertex="1" parent="1">
          <mxGeometry x="570" y="155" width="25" height="60" as="geometry" />
        </mxCell>
        <mxCell id="iyzIHNlen3aJOYBns60_-17" value="RDMA 网卡" style="text;html=1;align=center;verticalAlign=middle;whiteSpace=wrap;rounded=0;" vertex="1" parent="1">
          <mxGeometry x="255" y="215" width="75" height="30" as="geometry" />
        </mxCell>
        <mxCell id="iyzIHNlen3aJOYBns60_-18" value="RDMA 网卡" style="text;html=1;align=center;verticalAlign=middle;whiteSpace=wrap;rounded=0;" vertex="1" parent="1">
          <mxGeometry x="506.25" y="215" width="75" height="30" as="geometry" />
        </mxCell>
        <mxCell id="iyzIHNlen3aJOYBns60_-19" value="" style="rounded=1;whiteSpace=wrap;html=1;arcSize=7;fillColor=#f5f5f5;fontColor=#333333;strokeColor=#666666;" vertex="1" parent="1">
          <mxGeometry x="240" y="200" width="25" height="15" as="geometry" />
        </mxCell>
        <mxCell id="iyzIHNlen3aJOYBns60_-20" value="CQ" style="text;html=1;align=center;verticalAlign=middle;whiteSpace=wrap;rounded=0;" vertex="1" parent="1">
          <mxGeometry x="222.5" y="155" width="60" height="30" as="geometry" />
        </mxCell>
        <mxCell id="iyzIHNlen3aJOYBns60_-21" value="RQ" style="text;html=1;align=center;verticalAlign=middle;resizable=0;points=[];autosize=1;strokeColor=none;fillColor=none;" vertex="1" parent="1">
          <mxGeometry x="282.5" y="155" width="40" height="30" as="geometry" />
        </mxCell>
        <mxCell id="iyzIHNlen3aJOYBns60_-22" value="SQ" style="text;html=1;align=center;verticalAlign=middle;resizable=0;points=[];autosize=1;strokeColor=none;fillColor=none;" vertex="1" parent="1">
          <mxGeometry x="316.5" y="155" width="40" height="30" as="geometry" />
        </mxCell>
        <mxCell id="iyzIHNlen3aJOYBns60_-23" value="CQ" style="text;html=1;align=center;verticalAlign=middle;resizable=0;points=[];autosize=1;strokeColor=none;fillColor=none;" vertex="1" parent="1">
          <mxGeometry x="562.5" y="155" width="40" height="30" as="geometry" />
        </mxCell>
        <mxCell id="iyzIHNlen3aJOYBns60_-24" value="" style="rounded=1;whiteSpace=wrap;html=1;arcSize=7;fillColor=#f5f5f5;fontColor=#333333;strokeColor=#666666;" vertex="1" parent="1">
          <mxGeometry x="570" y="200" width="25" height="15" as="geometry" />
        </mxCell>
        <mxCell id="iyzIHNlen3aJOYBns60_-25" value="RQ" style="text;html=1;align=center;verticalAlign=middle;resizable=0;points=[];autosize=1;strokeColor=none;fillColor=none;" vertex="1" parent="1">
          <mxGeometry x="482.5" y="155" width="40" height="30" as="geometry" />
        </mxCell>
        <mxCell id="iyzIHNlen3aJOYBns60_-26" value="SQ" style="text;html=1;align=center;verticalAlign=middle;resizable=0;points=[];autosize=1;strokeColor=none;fillColor=none;" vertex="1" parent="1">
          <mxGeometry x="517.5" y="155" width="40" height="30" as="geometry" />
        </mxCell>
        <mxCell id="iyzIHNlen3aJOYBns60_-27" value="" style="shape=flexArrow;endArrow=classic;html=1;rounded=0;endWidth=4.194444444444445;endSize=1.9333333333333333;width=4.833333333333333;entryX=0.461;entryY=0.995;entryDx=0;entryDy=0;entryPerimeter=0;exitX=0.5;exitY=0;exitDx=0;exitDy=0;" edge="1" parent="1" target="iyzIHNlen3aJOYBns60_-2">
          <mxGeometry width="50" height="50" relative="1" as="geometry">
            <mxPoint x="252.5" y="155" as="sourcePoint" />
            <mxPoint x="252" y="120" as="targetPoint" />
          </mxGeometry>
        </mxCell>
        <mxCell id="iyzIHNlen3aJOYBns60_-28" value="" style="shape=flexArrow;endArrow=classic;html=1;rounded=0;endWidth=4.194444444444445;endSize=1.9333333333333333;width=4.833333333333333;" edge="1" parent="1">
          <mxGeometry width="50" height="50" relative="1" as="geometry">
            <mxPoint x="336.29999999999995" y="120" as="sourcePoint" />
            <mxPoint x="336.29999999999995" y="155" as="targetPoint" />
          </mxGeometry>
        </mxCell>
        <mxCell id="iyzIHNlen3aJOYBns60_-29" value="" style="rounded=1;whiteSpace=wrap;html=1;arcSize=7;fillColor=#647687;fontColor=#ffffff;strokeColor=#314354;" vertex="1" parent="1">
          <mxGeometry x="324" y="195" width="25" height="20" as="geometry" />
        </mxCell>
        <mxCell id="iyzIHNlen3aJOYBns60_-31" value="&lt;font style=&quot;font-size: 10px;&quot;&gt;下发send wr&lt;/font&gt;" style="text;html=1;align=center;verticalAlign=middle;resizable=0;points=[];autosize=1;strokeColor=none;fillColor=none;" vertex="1" parent="1">
          <mxGeometry x="340" y="115" width="80" height="30" as="geometry" />
        </mxCell>
        <mxCell id="iyzIHNlen3aJOYBns60_-32" value="" style="ellipse;whiteSpace=wrap;html=1;aspect=fixed;" vertex="1" parent="1">
          <mxGeometry x="341.5" y="126" width="10" height="10" as="geometry" />
        </mxCell>
        <mxCell id="iyzIHNlen3aJOYBns60_-33" value="&lt;font style=&quot;font-size: 10px;&quot;&gt;1&lt;/font&gt;" style="text;html=1;align=center;verticalAlign=middle;whiteSpace=wrap;rounded=0;" vertex="1" parent="1">
          <mxGeometry x="316.5" y="114.5" width="60" height="30" as="geometry" />
        </mxCell>
        <mxCell id="iyzIHNlen3aJOYBns60_-34" value="" style="ellipse;whiteSpace=wrap;html=1;aspect=fixed;" vertex="1" parent="1">
          <mxGeometry x="258" y="126" width="10" height="10" as="geometry" />
        </mxCell>
        <mxCell id="iyzIHNlen3aJOYBns60_-35" value="&lt;font style=&quot;font-size: 10px;&quot;&gt;Poll CQE&lt;/font&gt;" style="text;html=1;align=center;verticalAlign=middle;resizable=0;points=[];autosize=1;strokeColor=none;fillColor=none;" vertex="1" parent="1">
          <mxGeometry x="261" y="114.5" width="60" height="30" as="geometry" />
        </mxCell>
        <mxCell id="iyzIHNlen3aJOYBns60_-36" value="&lt;font style=&quot;font-size: 10px;&quot;&gt;3&lt;/font&gt;" style="text;html=1;align=center;verticalAlign=middle;resizable=0;points=[];autosize=1;strokeColor=none;fillColor=none;" vertex="1" parent="1">
          <mxGeometry x="248" y="115" width="30" height="30" as="geometry" />
        </mxCell>
        <mxCell id="iyzIHNlen3aJOYBns60_-37" value="" style="shape=flexArrow;endArrow=classic;html=1;rounded=0;endWidth=4.194444444444445;endSize=1.9333333333333333;width=4.833333333333333;" edge="1" parent="1">
          <mxGeometry width="50" height="50" relative="1" as="geometry">
            <mxPoint x="380" y="210" as="sourcePoint" />
            <mxPoint x="460" y="210" as="targetPoint" />
          </mxGeometry>
        </mxCell>
        <mxCell id="iyzIHNlen3aJOYBns60_-39" value="数据" style="text;html=1;align=center;verticalAlign=middle;resizable=0;points=[];autosize=1;strokeColor=none;fillColor=none;" vertex="1" parent="1">
          <mxGeometry x="392" y="184" width="50" height="30" as="geometry" />
        </mxCell>
        <mxCell id="iyzIHNlen3aJOYBns60_-42" value="" style="ellipse;whiteSpace=wrap;html=1;aspect=fixed;" vertex="1" parent="1">
          <mxGeometry x="392" y="195" width="10" height="10" as="geometry" />
        </mxCell>
        <mxCell id="iyzIHNlen3aJOYBns60_-43" value="&lt;font style=&quot;font-size: 10px;&quot;&gt;2&lt;/font&gt;" style="text;html=1;align=center;verticalAlign=middle;whiteSpace=wrap;rounded=0;" vertex="1" parent="1">
          <mxGeometry x="367" y="184" width="60" height="30" as="geometry" />
        </mxCell>
        <mxCell id="iyzIHNlen3aJOYBns60_-45" value="" style="endArrow=classic;html=1;rounded=0;dashed=1;strokeWidth=3;dashPattern=1 1;entryX=0.133;entryY=0.871;entryDx=0;entryDy=0;entryPerimeter=0;" edge="1" parent="1" target="iyzIHNlen3aJOYBns60_-33">
          <mxGeometry width="50" height="50" relative="1" as="geometry">
            <mxPoint x="311" y="109.5" as="sourcePoint" />
            <mxPoint x="321" y="149.5" as="targetPoint" />
            <Array as="points" />
          </mxGeometry>
        </mxCell>
        <mxCell id="iyzIHNlen3aJOYBns60_-46" value="" style="endArrow=classic;html=1;rounded=0;dashed=1;strokeWidth=3;dashPattern=1 1;entryX=0.25;entryY=1;entryDx=0;entryDy=0;exitX=0.5;exitY=0;exitDx=0;exitDy=0;" edge="1" parent="1" source="iyzIHNlen3aJOYBns60_-13" target="iyzIHNlen3aJOYBns60_-7">
          <mxGeometry width="50" height="50" relative="1" as="geometry">
            <mxPoint x="442" y="116" as="sourcePoint" />
            <mxPoint x="455" y="147.5" as="targetPoint" />
            <Array as="points" />
          </mxGeometry>
        </mxCell>
        <mxCell id="iyzIHNlen3aJOYBns60_-48" value="" style="endArrow=classic;html=1;rounded=0;" edge="1" parent="1">
          <mxGeometry width="50" height="50" relative="1" as="geometry">
            <mxPoint x="460" y="230" as="sourcePoint" />
            <mxPoint x="380" y="230" as="targetPoint" />
          </mxGeometry>
        </mxCell>
        <mxCell id="iyzIHNlen3aJOYBns60_-49" value="ACK" style="text;html=1;align=center;verticalAlign=middle;resizable=0;points=[];autosize=1;strokeColor=none;fillColor=none;" vertex="1" parent="1">
          <mxGeometry x="392" y="225" width="50" height="30" as="geometry" />
        </mxCell>
      </root>
    </mxGraphModel>
  </diagram>
</mxfile>
